<?xml version="1.0" encoding="UTF-8" standalone="no"?>
<svg
   id="Ebene_1"
   data-name="Ebene 1"
   viewBox="0 0 150.1884 60.122459"
   version="1.1"
   sodipodi:docname="TYPO3-Logo-rgb+additionalText.svg"
   inkscape:version="1.4.3 (0d15f75, 2025-12-25)"
   inkscape:export-filename="TYPO3-Logo-rgb+additionalText.svg"
   inkscape:export-xdpi="96"
   inkscape:export-ydpi="96"
   width="150.1884"
   height="60.122459"
   xmlns:inkscape="http://www.inkscape.org/namespaces/inkscape"
   xmlns:sodipodi="http://sodipodi.sourceforge.net/DTD/sodipodi-0.dtd"
   xmlns="http://www.w3.org/2000/svg"
   xmlns:svg="http://www.w3.org/2000/svg">
  <defs
     id="defs21" />
  <sodipodi:namedview
     id="namedview21"
     pagecolor="#ffffff"
     bordercolor="#000000"
     borderopacity="0.25"
     inkscape:showpageshadow="2"
     inkscape:pageopacity="0.0"
     inkscape:pagecheckerboard="0"
     inkscape:deskcolor="#d1d1d1"
     showguides="true"
     inkscape:zoom="4.403833"
     inkscape:cx="71.86921"
     inkscape:cy="43.598383"
     inkscape:window-width="1426"
     inkscape:window-height="745"
     inkscape:window-x="86"
     inkscape:window-y="120"
     inkscape:window-maximized="0"
     inkscape:current-layer="g22">
    <sodipodi:guide
       position="46.856719,40.818406"
       orientation="0,-1"
       id="guide21"
       inkscape:locked="false" />
    <sodipodi:guide
       position="50.262843,58.530249"
       orientation="1,0"
       id="guide22"
       inkscape:locked="false" />
  </sodipodi:namedview>
  <g
     id="g22"
     transform="translate(-20.811604,-20.43)">
    <path
       d="m 50.53,47.8 a 5.19,5.19 0 0 1 -1.67,0.24 c -5,0 -12.46,-17.63 -12.46,-23.5 0,-2.16 0.52,-2.88 1.24,-3.5 -6.18,0.72 -13.59,3 -16,5.87 a 5.77,5.77 0 0 0 -0.82,3.29 c 0,9.17 9.78,30 16.68,30 3.19,0 8.57,-5.25 13,-12.36"
       fill="#ff8700"
       id="path1" />
    <path
       d="m 47.31,20.43 c 6.38,0 12.77,1 12.77,4.63 0,7.3 -4.63,16.16 -7,16.16 -4.22,0 -9.47,-11.74 -9.47,-17.6 0,-2.68 1,-3.19 3.7,-3.19"
       fill="#ff8700"
       id="path2" />
    <path
       d="M 81.48,33.67 V 60.5 H 77.74 V 33.67 H 71.11 V 30.4 h 17 v 3.27 z"
       id="path3" />
    <path
       d="m 101.17,46.53 v 14 H 97.3 v -14 L 89.6,30.4 h 4.13 l 5.68,12.51 5.67,-12.51 H 109 Z"
       id="path4" />
    <path
       d="m 120.86,49.15 h -3.61 V 60.5 h -3.74 V 30.4 c 0,0 3.7,-0.3 7.27,-0.3 6.54,0 8.43,4 8.43,9.33 0,6.57 -2.21,9.72 -8.35,9.72 z m 0.43,-15.95 a 30.37,30.37 0 0 0 -4,0.25 V 46 h 4 c 2.41,0 4.09,-1.59 4.09,-6.28 0,-4.29 -1.03,-6.52 -4.09,-6.52 z"
       id="path5" />
    <path
       d="m 143.14,60.8 c -7.1,0 -9,-5.16 -9,-15.69 0,-10.11 1.89,-15 9,-15 7.11,0 9,4.9 9,15 -0.01,10.53 -1.91,15.69 -9,15.69 z m 0,-27.56 c -3.87,0 -5.16,2.62 -5.16,12.08 0,9.25 1.29,12.34 5.16,12.34 3.87,0 5.16,-3.09 5.16,-12.34 0,-9.46 -1.3,-12.08 -5.16,-12.08 z"
       id="path6" />
    <path
       d="m 163.69,60.8 a 33.1,33.1 0 0 1 -5.63,-0.73 v -3.23 a 32.34,32.34 0 0 0 5.59,0.69 c 2.19,0 3.61,-1.8 3.61,-5.11 0,-4 -0.64,-6 -3.7,-6 H 160 V 43.3 h 3.09 c 3.49,0 3.66,-3.57 3.66,-5.29 0,-3.4 -1.08,-4.77 -3.23,-4.77 a 27.42,27.42 0 0 0 -5.29,0.73 v -3.14 a 26.58,26.58 0 0 1 5.21,-0.73 c 4.43,0 7,1.89 7,8.3 0,2.92 -0.9,5.5 -3.26,6.23 C 170,45 171,47.77 171,52 c 0,6.39 -2.53,8.8 -7.31,8.8 z"
       id="path7" />
    <rect
       width="190.97"
       height="101"
       fill="none"
       id="rect21"
       x="0"
       y="0" />
    <path
       style="font-size:14px;font-family:Share-Regular;-inkscape-font-specification:Share-Regular"
       d="m 77.279824,80.45446 h -1.904 l -0.938,-4.256 -1.022,4.256 h -1.82 l -0.476,-9.8 h 1.078 l 0.42,9.03 1.26,-4.9 h 1.148 l 1.274,4.9 0.434,-9.03 h 1.022 z m 3.136006,-3.08 q 0.014,0.686 0.098,1.12 0.098,0.42 0.252,0.658 0.154,0.238 0.364,0.322 0.21,0.07 0.476,0.07 0.588,0 1.064,-0.07 0.49,-0.084 0.812,-0.154 v 1.008 q -0.336,0.098 -0.854,0.154 -0.504,0.07 -0.882,0.07 -0.602,0 -1.078,-0.126 -0.462,-0.126 -0.784,-0.504 -0.322,-0.378 -0.49,-1.078 -0.168,-0.714 -0.168,-1.89 0,-0.966 0.154,-1.652 0.168,-0.686 0.49,-1.12 0.322,-0.434 0.798,-0.63 0.476,-0.196 1.106,-0.196 1.204,0 1.722,0.798 0.532,0.784 0.532,2.17 v 1.05 z m 1.33,-3.024 q -0.336,0 -0.574,0.098 -0.238,0.098 -0.392,0.336 -0.154,0.238 -0.238,0.644 -0.084,0.392 -0.112,0.994 h 2.436 v -0.378 q 0,-0.798 -0.252,-1.246 -0.238,-0.448 -0.868,-0.448 z m 9.198006,2.156 q 0,1.148 -0.154,1.932 -0.154,0.77 -0.504,1.246 -0.35,0.462 -0.924,0.672 -0.56,0.196 -1.4,0.196 -0.378,0 -0.658,-0.014 -0.28,-0.014 -0.518,-0.042 -0.224,-0.028 -0.42,-0.056 -0.182,-0.028 -0.378,-0.056 v -9.73 h 1.19 v 3.318 q 0.658,-0.616 1.554,-0.616 1.232,0 1.722,0.798 0.49,0.784 0.49,2.352 z m -2.436,-2.142 q -0.294,0 -0.546,0.112 -0.238,0.112 -0.42,0.294 -0.168,0.182 -0.266,0.392 -0.098,0.196 -0.098,0.392 v 3.934 q 0.154,0.028 0.378,0.042 0.224,0.014 0.546,0.014 0.504,0 0.812,-0.182 0.322,-0.182 0.49,-0.546 0.182,-0.364 0.252,-0.896 0.07,-0.546 0.07,-1.274 0,-0.672 -0.07,-1.106 -0.056,-0.434 -0.21,-0.7 -0.14,-0.266 -0.378,-0.364 -0.224,-0.112 -0.56,-0.112 z m 7.616011,6.09 v -1.022 h 0.98 v -7.756 h -0.98 v -1.022 h 3.178 v 1.022 h -0.98 v 7.756 h 0.98 v 1.022 z m 4.927993,0 v -7 h 0.98 l 0.098,0.63 q 0.686,-0.728 1.722,-0.728 0.602,0 1.008,0.154 0.406,0.14 0.644,0.448 0.252,0.294 0.35,0.77 0.112,0.462 0.112,1.106 v 4.62 h -1.19 v -4.76 q 0,-0.658 -0.224,-0.994 -0.21,-0.336 -0.91,-0.336 -0.294,0 -0.56,0.112 -0.252,0.112 -0.448,0.294 -0.182,0.182 -0.294,0.392 -0.098,0.196 -0.098,0.392 v 4.9 z m 10.89201,-2.03 q 0,1.162 -0.644,1.652 -0.63,0.476 -1.708,0.476 -0.602,0 -1.022,-0.084 -0.42,-0.07 -0.658,-0.14 v -1.022 q 0.126,0.028 0.322,0.07 0.21,0.028 0.448,0.07 0.238,0.028 0.49,0.056 0.266,0.028 0.518,0.028 0.28,0 0.462,-0.084 0.196,-0.098 0.308,-0.238 0.126,-0.154 0.182,-0.336 0.056,-0.196 0.056,-0.378 0,-0.504 -0.182,-0.742 -0.168,-0.238 -0.7,-0.336 -1.078,-0.196 -1.526,-0.672 -0.434,-0.49 -0.434,-1.274 0,-0.574 0.182,-0.966 0.182,-0.406 0.49,-0.658 0.322,-0.252 0.742,-0.364 0.434,-0.126 0.938,-0.126 0.546,0 0.91,0.098 0.378,0.084 0.588,0.14 v 1.022 q -0.364,-0.084 -0.7,-0.168 -0.336,-0.084 -0.91,-0.084 -0.322,0 -0.532,0.098 -0.196,0.084 -0.308,0.238 -0.112,0.14 -0.154,0.322 -0.028,0.182 -0.028,0.378 0,0.77 0.896,0.91 1.092,0.182 1.526,0.686 0.448,0.504 0.448,1.428 z m 3.15,-3.92 v 4.27 q 0,0.098 0.028,0.238 0.028,0.126 0.098,0.252 0.084,0.112 0.21,0.196 0.14,0.084 0.364,0.084 0.322,0 0.546,-0.042 0.224,-0.056 0.378,-0.098 v 0.98 q -0.14,0.042 -0.49,0.098 -0.336,0.07 -0.714,0.07 -0.42,0 -0.728,-0.14 -0.308,-0.14 -0.504,-0.392 -0.196,-0.252 -0.294,-0.588 -0.084,-0.336 -0.084,-0.728 v -4.2 h -0.91 v -1.05 h 0.91 v -1.68 h 1.19 v 1.68 h 1.624 v 1.05 z m 7.72799,5.95 q -0.098,0 -0.252,-0.028 -0.14,-0.028 -0.294,-0.098 -0.154,-0.07 -0.294,-0.21 -0.126,-0.14 -0.21,-0.35 -0.266,0.378 -0.7,0.588 -0.434,0.196 -1.148,0.196 -0.378,0 -0.756,-0.084 -0.378,-0.07 -0.672,-0.294 -0.294,-0.238 -0.476,-0.644 -0.182,-0.406 -0.182,-1.05 0,-1.134 0.658,-1.736 0.658,-0.602 1.834,-0.602 h 1.106 v -0.756 q 0,-0.448 -0.266,-0.728 -0.252,-0.294 -0.784,-0.294 -0.602,0 -1.05,0.07 -0.448,0.07 -0.98,0.224 v -1.022 q 0.392,-0.112 0.882,-0.196 0.49,-0.084 1.008,-0.084 0.686,0 1.134,0.14 0.462,0.126 0.728,0.42 0.28,0.28 0.392,0.714 0.126,0.434 0.126,1.036 v 3.36 q 0,0.21 0.14,0.336 0.14,0.112 0.476,0.112 v 0.98 z m -2.618,-0.91 q 0.364,0 0.602,-0.112 0.238,-0.112 0.378,-0.266 0.14,-0.168 0.196,-0.336 0.056,-0.168 0.056,-0.266 v -1.47 h -1.176 q -0.224,0 -0.448,0.07 -0.21,0.07 -0.378,0.238 -0.168,0.154 -0.28,0.406 -0.098,0.238 -0.098,0.588 0,0.658 0.294,0.91 0.294,0.238 0.854,0.238 z m 6.81801,0.84 q -0.154,0.028 -0.364,0.07 -0.196,0.042 -0.476,0.042 -0.21,0 -0.42,-0.07 -0.21,-0.07 -0.378,-0.252 -0.168,-0.182 -0.28,-0.49 -0.112,-0.322 -0.112,-0.798 v -8.232 h 1.19 v 8.162 q 0,0.364 0.084,0.518 0.098,0.14 0.378,0.14 0.112,0 0.21,-0.028 0.112,-0.028 0.168,-0.042 z m 3.70999,0 q -0.154,0.028 -0.364,0.07 -0.196,0.042 -0.476,0.042 -0.21,0 -0.42,-0.07 -0.21,-0.07 -0.378,-0.252 -0.168,-0.182 -0.28,-0.49 -0.112,-0.322 -0.112,-0.798 v -8.232 h 1.19 v 8.162 q 0,0.364 0.084,0.518 0.098,0.14 0.378,0.14 0.112,0 0.21,-0.028 0.112,-0.028 0.168,-0.042 z m 2.66,-3.01 q 0.014,0.686 0.098,1.12 0.098,0.42 0.252,0.658 0.154,0.238 0.364,0.322 0.21,0.07 0.476,0.07 0.588,0 1.064,-0.07 0.49,-0.084 0.812,-0.154 v 1.008 q -0.336,0.098 -0.854,0.154 -0.504,0.07 -0.882,0.07 -0.602,0 -1.078,-0.126 -0.462,-0.126 -0.784,-0.504 -0.322,-0.378 -0.49,-1.078 -0.168,-0.714 -0.168,-1.89 0,-0.966 0.154,-1.652 0.168,-0.686 0.49,-1.12 0.322,-0.434 0.798,-0.63 0.476,-0.196 1.106,-0.196 1.204,0 1.722,0.798 0.532,0.784 0.532,2.17 v 1.05 z m 1.33,-3.024 q -0.336,0 -0.574,0.098 -0.238,0.098 -0.392,0.336 -0.154,0.238 -0.238,0.644 -0.084,0.392 -0.112,0.994 h 2.436 v -0.378 q 0,-0.798 -0.252,-1.246 -0.238,-0.448 -0.868,-0.448 z m 4.242,6.104 v -7 h 0.98 l 0.084,0.714 q 0.238,-0.364 0.588,-0.588 0.35,-0.224 0.868,-0.224 0.252,0 0.434,0.028 0.182,0.014 0.308,0.042 v 1.246 q -0.182,-0.042 -0.42,-0.084 -0.224,-0.042 -0.42,-0.042 -0.35,0 -0.588,0.14 -0.224,0.14 -0.378,0.378 -0.14,0.224 -0.21,0.518 -0.056,0.28 -0.056,0.56 v 4.312 z"
       id="text21"
       aria-label="Web Installer" />
  </g>
</svg>
